<svg data-v-423bf9ae="" xmlns="http://www.w3.org/2000/svg" viewBox="0 0 701.0091484492992 60" class="font"><!----><!----><!----><g data-v-423bf9ae="" id="ace36d45-5f76-41fd-b203-2e599a14987d" fill="white" transform="matrix(5.504587348608571,0,0,5.504587348608571,-4.568813741041083,-15.577982730269888)"><path d="M0.83 10.82L0.83 10.82L0.83 10.82Q0.83 10.53 1.02 10.53L1.02 10.53L1.02 10.53Q1.20 10.53 1.25 10.67L1.25 10.67L1.25 10.67Q1.39 11.00 1.51 11.25L1.51 11.25L1.51 11.25Q1.62 11.49 1.89 11.85L1.89 11.85L1.89 11.85Q2.16 12.21 2.46 12.44L2.46 12.44L2.46 12.44Q2.77 12.67 3.25 12.84L3.25 12.84L3.25 12.84Q3.74 13.01 4.31 13.01L4.31 13.01L4.31 13.01Q5.36 13.01 6.00 12.45L6.00 12.45L6.00 12.45Q6.64 11.90 6.64 11.00L6.64 11.00L6.64 11.00Q6.64 10.35 6.20 9.90L6.20 9.90L6.20 9.90Q5.77 9.46 5.21 9.27L5.21 9.27L5.21 9.27Q4.65 9.09 3.79 8.77L3.79 8.77L3.79 8.77Q2.93 8.46 2.38 8.13L2.38 8.13L2.38 8.13Q1.11 7.38 1.11 6.08L1.11 6.08L1.11 6.08Q1.11 4.83 2.01 4.08L2.01 4.08L2.01 4.08Q2.91 3.33 4.35 3.33L4.35 3.33L4.35 3.33Q4.89 3.33 5.62 3.56L5.62 3.56L5.62 3.56Q6.36 3.79 6.37 3.79L6.37 3.79L6.37 3.79Q6.41 3.79 6.52 3.74L6.52 3.74L6.52 3.74Q6.64 3.68 6.69 3.68L6.69 3.68L6.69 3.68Q6.87 3.68 6.90 3.79L6.90 3.79L6.90 3.79Q7.20 5.49 7.20 5.70L7.20 5.70L7.20 5.70Q7.20 6.09 7 6.09L7 6.09L7 6.09Q6.87 6.09 6.80 5.89L6.80 5.89L6.80 5.89Q6.64 5.49 6.48 5.24L6.48 5.24L6.48 5.24Q6.31 4.98 6.24 4.91L6.24 4.91L6.24 4.91Q6.17 4.84 5.88 4.58L5.88 4.58L5.88 4.58Q5.12 3.91 4.05 3.91L4.05 3.91L4.05 3.91Q3.18 3.91 2.59 4.33L2.59 4.33L2.59 4.33Q2.00 4.75 2.00 5.46L2.00 5.46L2.00 5.46Q2.00 6.09 2.35 6.50L2.35 6.50L2.35 6.50Q2.69 6.90 3.26 7.13L3.26 7.13L3.26 7.13Q3.84 7.35 4.47 7.55L4.47 7.55L4.47 7.55Q5.10 7.74 5.80 8.09L5.80 8.09L5.80 8.09Q6.51 8.44 6.97 8.93L6.97 8.93L6.97 8.93Q7.53 9.53 7.53 10.43L7.53 10.43L7.53 10.43Q7.53 11.90 6.59 12.76L6.59 12.76L6.59 12.76Q5.66 13.62 4.27 13.62L4.27 13.62L4.27 13.62Q3.30 13.62 2.72 13.52L2.72 13.52L2.72 13.52Q2.13 13.41 1.51 13.09L1.51 13.09L1.51 13.09Q1.33 12.98 1.08 12.00L1.08 12.00L1.08 12.00Q0.83 11.02 0.83 10.82ZM8.75 7.92L8.75 7.92L8.75 7.92Q8.75 7.83 8.81 7.76L8.81 7.76L8.81 7.76Q8.88 7.70 9.09 7.66L9.09 7.66L9.09 7.66Q9.30 7.62 9.69 7.62L9.69 7.62L9.69 7.62Q9.79 7.62 10.12 7.58L10.12 7.58L10.12 7.58Q10.46 7.55 10.49 7.55L10.49 7.55L10.49 7.55Q10.72 7.55 10.77 7.64L10.77 7.64L10.77 7.64Q10.81 7.74 10.81 8.25L10.81 8.25L10.81 8.25Q10.81 8.53 10.77 9.20L10.77 9.20L10.77 9.20Q10.74 9.88 10.74 10.71L10.74 10.71L10.74 10.71Q10.74 11.94 11.21 12.45L11.21 12.45L11.21 12.45Q11.69 12.96 12.29 12.96L12.29 12.96L12.29 12.96Q13.19 12.96 13.59 12.59L13.59 12.59L13.59 12.59Q14 12.21 14 11.26L14 11.26L13.97 9.32L13.97 9.32Q13.97 8.62 13.86 8.38L13.86 8.38L13.86 8.38Q13.75 8.13 13.33 8.09L13.33 8.09L13.33 8.09Q13.02 8.06 13.02 7.91L13.02 7.91L13.02 7.91Q13.02 7.59 14.25 7.59L14.25 7.59L14.25 7.59Q14.36 7.59 14.53 7.55L14.53 7.55L14.53 7.55Q14.70 7.52 14.76 7.52L14.76 7.52L14.76 7.52Q14.97 7.52 15.03 7.59L15.03 7.59L15.03 7.59Q15.09 7.66 15.09 7.91L15.09 7.91L15.09 7.91Q15.09 7.92 15.09 8.13L15.09 8.13L15.09 8.13Q15.08 8.33 15.07 8.67L15.07 8.67L15.07 8.67Q15.06 9.00 15.05 9.42L15.05 9.42L15.05 9.42Q15.04 9.84 15.03 10.39L15.03 10.39L15.03 10.39Q15.02 10.95 15.02 11.48L15.02 11.48L15.02 11.48Q15.02 12.33 15.11 12.64L15.11 12.64L15.11 12.64Q15.19 12.95 15.41 12.95L15.41 12.95L15.41 12.95Q15.48 12.95 15.60 12.94L15.60 12.94L15.60 12.94Q15.72 12.94 15.78 12.94L15.78 12.94L15.78 12.94Q16.11 12.94 16.11 13.12L16.11 13.12L16.11 13.12Q16.11 13.27 16.02 13.31L16.02 13.31L16.02 13.31Q15.92 13.36 15.60 13.36L15.60 13.36L15.60 13.36Q15.36 13.36 14.79 13.43L14.79 13.43L14.79 13.43Q14.22 13.51 14.18 13.51L14.18 13.51L14.18 13.51Q14.08 13.51 14.02 13.15L14.02 13.15L14.02 13.15Q13.96 12.80 13.93 12.80L13.93 12.80L13.93 12.80Q13.92 12.80 13.66 13.02L13.66 13.02L13.66 13.02Q13.41 13.24 12.94 13.47L12.94 13.47L12.94 13.47Q12.47 13.69 11.91 13.69L11.91 13.69L11.91 13.69Q9.66 13.69 9.66 11.26L9.66 11.26L9.66 11.26Q9.66 9.90 9.67 9.33L9.67 9.33L9.67 9.33Q9.67 8.76 9.67 8.74L9.67 8.74L9.67 8.74Q9.67 8.46 9.53 8.29L9.53 8.29L9.53 8.29Q9.38 8.12 9.25 8.12L9.25 8.12L9.00 8.12L9.00 8.12Q8.75 8.12 8.75 7.92ZM16.84 7.98L16.84 7.98L16.84 7.98Q16.84 7.90 16.93 7.85L16.93 7.85L16.93 7.85Q17.02 7.81 17.23 7.78L17.23 7.78L17.23 7.78Q17.44 7.76 17.53 7.73L17.53 7.73L17.53 7.73Q17.79 7.66 18.08 7.54L18.08 7.54L18.08 7.54Q18.37 7.42 18.54 7.34L18.54 7.34L18.54 7.34Q18.72 7.25 18.77 7.25L18.77 7.25L18.80 7.25L18.80 7.25Q18.93 7.25 18.93 7.42L18.93 7.42L18.93 7.42Q18.93 7.45 18.91 7.67L18.91 7.67L18.91 7.67Q18.90 7.90 18.90 8.02L18.90 8.02L18.90 8.02Q18.90 8.39 18.97 8.39L18.97 8.39L18.97 8.39Q19.01 8.39 19.07 8.31L19.07 8.31L19.07 8.31Q19.12 8.23 19.27 8.08L19.27 8.08L19.27 8.08Q19.42 7.94 19.63 7.81L19.63 7.81L19.63 7.81Q20.26 7.42 20.85 7.42L20.85 7.42L20.85 7.42Q21.41 7.42 21.85 7.59L21.85 7.59L21.85 7.59Q22.30 7.77 22.55 8.03L22.55 8.03L22.55 8.03Q22.81 8.29 22.97 8.62L22.97 8.62L22.97 8.62Q23.14 8.96 23.20 9.24L23.20 9.24L23.20 9.24Q23.25 9.52 23.25 9.77L23.25 9.77L23.25 9.77Q23.25 9.83 23.25 9.90L23.25 9.90L23.25 9.90Q23.25 9.98 23.26 10.10L23.26 10.10L23.26 10.10Q23.27 10.22 23.27 10.65L23.27 10.65L23.27 10.65Q23.27 11.09 23.27 11.77L23.27 11.77L23.27 12.08L23.27 12.08Q23.27 12.61 23.42 12.82L23.42 12.82L23.42 12.82Q23.56 13.02 24.12 13.10L24.12 13.10L24.12 13.10Q24.40 13.15 24.40 13.31L24.40 13.31L24.40 13.31Q24.40 13.45 24.12 13.45L24.12 13.45L24.12 13.45Q23.80 13.45 23.45 13.42L23.45 13.42L23.45 13.42Q23.10 13.38 22.97 13.38L22.97 13.38L22.97 13.38Q22.78 13.38 22.37 13.41L22.37 13.41L22.37 13.41Q21.95 13.44 21.90 13.44L21.90 13.44L21.90 13.44Q21.62 13.44 21.62 13.26L21.62 13.26L21.62 13.26Q21.62 13.19 21.66 13.15L21.66 13.15L21.66 13.15Q21.71 13.10 21.78 13.09L21.78 13.09L21.78 13.09Q21.84 13.08 21.90 13.06L21.90 13.06L21.97 13.05L21.97 13.05Q22.27 12.95 22.27 12.11L22.27 12.11L22.27 10.22L22.27 10.22Q22.27 9.14 21.74 8.59L21.74 8.59L21.74 8.59Q21.21 8.04 20.47 8.04L20.47 8.04L20.47 8.04Q19.87 8.04 19.42 8.36L19.42 8.36L19.42 8.36Q18.97 8.68 18.90 8.89L18.90 8.89L18.90 8.89Q18.77 9.24 18.77 11.10L18.77 11.10L18.77 11.63L18.77 11.63Q18.77 12.33 18.92 12.67L18.92 12.67L18.92 12.67Q19.07 13.01 19.57 13.05L19.57 13.05L19.57 13.05Q19.71 13.05 19.93 13.10L19.93 13.10L19.93 13.10Q20.15 13.15 20.15 13.26L20.15 13.26L20.15 13.26Q20.15 13.44 19.88 13.44L19.88 13.44L19.88 13.44Q19.64 13.44 19.42 13.41L19.42 13.41L19.42 13.41Q19.19 13.38 18.86 13.38L18.86 13.38L18.86 13.38Q18.49 13.38 17.89 13.41L17.89 13.41L17.29 13.44L17.29 13.44Q17.08 13.44 17.08 13.30L17.08 13.30L17.08 13.30Q17.08 13.19 17.15 13.16L17.15 13.16L17.15 13.16Q17.22 13.13 17.33 13.12L17.33 13.12L17.33 13.12Q17.43 13.10 17.54 13.03L17.54 13.03L17.54 13.03Q17.64 12.96 17.72 12.69L17.72 12.69L17.72 12.69Q17.81 12.42 17.82 11.96L17.82 11.96L17.82 11.96Q17.85 11.17 17.85 10.91L17.85 10.91L17.85 8.89L17.85 8.89Q17.85 8.44 17.69 8.29L17.69 8.29L17.69 8.29Q17.53 8.13 17.25 8.13L17.25 8.13L17.11 8.13L17.11 8.13Q16.84 8.13 16.84 7.98ZM25.45 12.84L25.45 12.84L25.45 11.62L25.45 11.62Q25.45 11.47 25.52 11.36L25.52 11.36L25.52 11.36Q25.58 11.26 25.66 11.26L25.66 11.26L25.66 11.26Q25.80 11.26 25.85 11.32L25.85 11.32L25.85 11.32Q25.90 11.38 25.94 11.58L25.94 11.58L25.94 11.58Q25.98 11.77 26.03 11.86L26.03 11.86L26.03 11.86Q26.54 13.15 27.48 13.15L27.48 13.15L27.48 13.15Q27.92 13.15 28.31 12.91L28.31 12.91L28.31 12.91Q28.70 12.68 28.70 12.15L28.70 12.15L28.70 12.15Q28.70 11.69 28.38 11.38L28.38 11.38L28.38 11.38Q28.06 11.07 27.59 10.90L27.59 10.90L27.59 10.90Q27.13 10.72 26.67 10.54L26.67 10.54L26.67 10.54Q26.21 10.35 25.89 9.97L25.89 9.97L25.89 9.97Q25.56 9.60 25.56 9.04L25.56 9.04L25.56 9.04Q25.56 8.26 26.19 7.78L26.19 7.78L26.19 7.78Q26.82 7.31 27.68 7.31L27.68 7.31L27.68 7.31Q28.34 7.31 28.73 7.43L28.73 7.43L28.73 7.43Q29.12 7.55 29.20 7.64L29.20 7.64L29.20 7.64Q29.27 7.74 29.27 7.83L29.27 7.83L29.27 7.83Q29.27 7.84 29.30 8.20L29.30 8.20L29.30 8.20Q29.33 8.57 29.33 8.67L29.33 8.67L29.33 8.67Q29.33 8.90 29.27 8.99L29.27 8.99L29.27 8.99Q29.22 9.07 29.08 9.07L29.08 9.07L29.08 9.07Q29.01 9.07 28.89 8.87L28.89 8.87L28.89 8.87Q28.77 8.67 28.62 8.43L28.62 8.43L28.62 8.43Q28.48 8.19 28.15 7.99L28.15 7.99L28.15 7.99Q27.82 7.78 27.38 7.78L27.38 7.78L27.38 7.78Q26.98 7.78 26.71 7.99L26.71 7.99L26.71 7.99Q26.45 8.19 26.45 8.50L26.45 8.50L26.45 8.50Q26.45 8.67 26.49 8.81L26.49 8.81L26.49 8.81Q26.53 8.96 26.64 9.07L26.64 9.07L26.64 9.07Q26.74 9.18 26.82 9.26L26.82 9.26L26.82 9.26Q26.89 9.34 27.08 9.42L27.08 9.42L27.08 9.42Q27.26 9.51 27.35 9.54L27.35 9.54L27.35 9.54Q27.44 9.58 27.66 9.65L27.66 9.65L27.66 9.65Q27.87 9.73 27.94 9.76L27.94 9.76L27.94 9.76Q28.95 10.14 29.30 10.55L29.30 10.55L29.30 10.55Q29.65 10.96 29.65 11.77L29.65 11.77L29.65 11.77Q29.65 12.56 28.91 13.23L28.91 13.23L28.91 13.23Q28.41 13.66 27.52 13.66L27.52 13.66L27.52 13.66Q27.27 13.66 26.99 13.61L26.99 13.61L26.99 13.61Q26.71 13.55 26.55 13.50L26.55 13.50L26.55 13.50Q26.39 13.45 26.18 13.37L26.18 13.37L26.18 13.37Q25.97 13.29 25.96 13.29L25.96 13.29L25.96 13.29Q25.90 13.27 25.82 13.24L25.82 13.24L25.82 13.24Q25.75 13.22 25.71 13.21L25.71 13.21L25.71 13.21Q25.68 13.20 25.62 13.17L25.62 13.17L25.62 13.17Q25.56 13.15 25.54 13.13L25.54 13.13L25.54 13.13Q25.52 13.10 25.49 13.06L25.49 13.06L25.49 13.06Q25.47 13.02 25.46 12.96L25.46 12.96L25.46 12.96Q25.45 12.91 25.45 12.84ZM30.46 3.68L30.46 3.68L30.46 3.68Q30.46 3.57 30.61 3.49L30.61 3.49L30.61 3.49Q30.76 3.42 31.03 3.35L31.03 3.35L31.03 3.35Q31.30 3.28 31.43 3.22L31.43 3.22L31.43 3.22Q32.31 2.83 32.44 2.83L32.44 2.83L32.44 2.83Q32.62 2.83 32.62 3.15L32.62 3.15L32.62 3.15Q32.62 3.22 32.57 3.49L32.57 3.49L32.57 3.49Q32.52 3.75 32.52 4.02L32.52 4.02L32.52 4.02Q32.51 5.28 32.49 6.15L32.49 6.15L32.49 6.15Q32.47 7.03 32.45 7.33L32.45 7.33L32.45 7.33Q32.44 7.63 32.43 7.83L32.43 7.83L32.43 7.83Q32.42 8.02 32.42 8.13L32.42 8.13L32.42 8.13Q32.42 8.40 32.54 8.40L32.54 8.40L32.54 8.40Q32.56 8.40 32.82 8.14L32.82 8.14L32.82 8.14Q33.08 7.88 33.54 7.62L33.54 7.62L33.54 7.62Q33.99 7.36 34.51 7.36L34.51 7.36L34.51 7.36Q35.64 7.36 36.27 8.04L36.27 8.04L36.27 8.04Q36.90 8.71 36.90 10.12L36.90 10.12L36.90 12.15L36.90 12.15Q36.90 12.29 36.93 12.45L36.93 12.45L36.93 12.45Q36.96 12.61 37.07 12.78L37.07 12.78L37.07 12.78Q37.18 12.95 37.37 12.96L37.37 12.96L37.37 12.96Q38.12 13.03 38.12 13.26L38.12 13.26L38.12 13.26Q38.12 13.48 37.69 13.48L37.69 13.48L37.69 13.48Q37.62 13.48 37.15 13.45L37.15 13.45L37.15 13.45Q36.68 13.41 36.51 13.41L36.51 13.41L36.51 13.41Q36.39 13.41 35.93 13.43L35.93 13.43L35.93 13.43Q35.48 13.45 35.43 13.45L35.43 13.45L35.43 13.45Q35.11 13.45 35.11 13.31L35.11 13.31L35.11 13.31Q35.11 13.16 35.23 13.11L35.23 13.11L35.23 13.11Q35.35 13.06 35.49 13.06L35.49 13.06L35.49 13.06Q35.63 13.06 35.75 12.91L35.75 12.91L35.75 12.91Q35.87 12.75 35.87 12.43L35.87 12.43L35.87 12.43Q35.87 12.38 35.88 12.29L35.88 12.29L35.88 12.29Q35.88 12.21 35.88 12.06L35.88 12.06L35.88 12.06Q35.88 11.91 35.89 11.41L35.89 11.41L35.89 11.41Q35.90 10.91 35.90 10.11L35.90 10.11L35.90 10.11Q35.90 9.25 35.38 8.63L35.38 8.63L35.38 8.63Q34.86 8.01 34.16 8.01L34.16 8.01L34.16 8.01Q33.50 8.01 32.80 8.55L32.80 8.55L32.80 8.55Q32.55 8.75 32.48 9.19L32.48 9.19L32.48 9.19Q32.41 9.63 32.41 11.14L32.41 11.14L32.41 11.47L32.41 11.47Q32.41 12.10 32.52 12.48L32.52 12.48L32.52 12.48Q32.62 12.87 32.97 13.02L32.97 13.02L32.97 13.02Q33.08 13.06 33.28 13.08L33.28 13.08L33.28 13.08Q33.47 13.09 33.58 13.13L33.58 13.13L33.58 13.13Q33.68 13.16 33.68 13.27L33.68 13.27L33.68 13.27Q33.68 13.44 33.53 13.44L33.53 13.44L33.17 13.43L33.17 13.43Q32.80 13.41 32.43 13.39L32.43 13.39L32.43 13.39Q32.06 13.37 32.03 13.37L32.03 13.37L32.03 13.37Q31.93 13.37 31.54 13.40L31.54 13.40L31.54 13.40Q31.15 13.44 31.04 13.44L31.04 13.44L31.04 13.44Q30.86 13.44 30.77 13.42L30.77 13.42L30.77 13.42Q30.67 13.40 30.67 13.38L30.67 13.38L30.67 13.38Q30.66 13.36 30.66 13.30L30.66 13.30L30.66 13.30Q30.66 13.16 30.83 13.12L30.83 13.12L30.83 13.12Q31.23 13.01 31.35 12.76L31.35 12.76L31.35 12.76Q31.47 12.52 31.47 12.04L31.47 12.04L31.53 7.27L31.53 6.58L31.53 6.58Q31.53 4.47 31.42 4.13L31.42 4.13L31.42 4.13Q31.32 3.84 30.94 3.84L30.94 3.84L30.94 3.84Q30.81 3.84 30.76 3.84L30.76 3.84L30.70 3.82L30.70 3.82Q30.46 3.82 30.46 3.68ZM38.91 8.11L38.91 8.11L38.91 8.11Q38.91 8.04 38.94 7.99L38.94 7.99L38.94 7.99Q38.98 7.95 39.08 7.90L39.08 7.90L39.08 7.90Q39.19 7.85 39.30 7.82L39.30 7.82L39.30 7.82Q39.41 7.78 39.63 7.71L39.63 7.71L39.63 7.71Q39.84 7.63 40.04 7.55L40.04 7.55L40.04 7.55Q40.19 7.48 40.33 7.42L40.33 7.42L40.33 7.42Q40.46 7.36 40.50 7.34L40.50 7.34L40.50 7.34Q40.54 7.32 40.60 7.31L40.60 7.31L40.60 7.31Q40.66 7.29 40.74 7.29L40.74 7.29L40.74 7.29Q40.95 7.29 40.95 7.56L40.95 7.56L40.95 7.56Q40.95 7.63 40.91 7.87L40.91 7.87L40.91 7.87Q40.87 8.11 40.87 8.23L40.87 8.23L40.87 12.07L40.87 12.07Q40.87 12.49 41.00 12.73L41.00 12.73L41.00 12.73Q41.13 12.96 41.28 13.02L41.28 13.02L41.28 13.02Q41.43 13.08 41.65 13.09L41.65 13.09L41.65 13.09Q41.82 13.10 41.87 13.11L41.87 13.11L41.87 13.11Q41.93 13.12 42 13.16L42 13.16L42 13.16Q42.07 13.20 42.07 13.30L42.07 13.30L42.07 13.30Q42.07 13.54 41.83 13.54L41.83 13.54L41.83 13.54Q41.80 13.54 41.73 13.53L41.73 13.53L41.73 13.53Q41.66 13.52 41.62 13.52L41.62 13.52L41.62 13.52Q41.31 13.52 41.10 13.51L41.10 13.51L41.10 13.51Q40.89 13.50 40.63 13.50L40.63 13.50L40.63 13.50Q40.29 13.50 40.00 13.51L40.00 13.51L40.00 13.51Q39.70 13.52 39.63 13.52L39.63 13.52L39.63 13.52Q39.07 13.52 39.07 13.34L39.07 13.34L39.07 13.34Q39.07 13.15 39.28 13.08L39.28 13.08L39.28 13.08Q39.30 13.08 39.34 13.06L39.34 13.06L39.34 13.06Q39.66 12.95 39.73 12.78L39.73 12.78L39.73 12.78Q39.86 12.50 39.86 10.56L39.86 10.56L39.86 9.32L39.86 9.32Q39.86 8.92 39.76 8.68L39.76 8.68L39.76 8.68Q39.66 8.44 39.58 8.39L39.58 8.39L39.58 8.39Q39.49 8.33 39.29 8.29L39.29 8.29L39.29 8.29Q39.09 8.26 39.05 8.25L39.05 8.25L39.05 8.25Q38.91 8.19 38.91 8.11ZM39.70 5.18L39.70 5.18L39.70 5.18Q39.70 5.01 39.95 4.71L39.95 4.71L39.95 4.71Q40.19 4.41 40.40 4.41L40.40 4.41L40.40 4.41Q40.63 4.41 40.84 4.70L40.84 4.70L40.84 4.70Q41.05 4.98 41.05 5.21L41.05 5.21L41.05 5.21Q41.05 5.43 40.78 5.70L40.78 5.70L40.78 5.70Q40.52 5.98 40.39 5.98L40.39 5.98L40.39 5.98Q40.11 5.98 39.91 5.68L39.91 5.68L39.91 5.68Q39.70 5.39 39.70 5.18ZM42.81 7.98L42.81 7.98L42.81 7.98Q42.81 7.90 42.90 7.85L42.90 7.85L42.90 7.85Q42.99 7.81 43.20 7.78L43.20 7.78L43.20 7.78Q43.41 7.76 43.50 7.73L43.50 7.73L43.50 7.73Q43.76 7.66 44.05 7.54L44.05 7.54L44.05 7.54Q44.34 7.42 44.51 7.34L44.51 7.34L44.51 7.34Q44.69 7.25 44.74 7.25L44.74 7.25L44.77 7.25L44.77 7.25Q44.90 7.25 44.90 7.42L44.90 7.42L44.90 7.42Q44.90 7.45 44.88 7.67L44.88 7.67L44.88 7.67Q44.87 7.90 44.87 8.02L44.87 8.02L44.87 8.02Q44.87 8.39 44.94 8.39L44.94 8.39L44.94 8.39Q44.98 8.39 45.04 8.31L45.04 8.31L45.04 8.31Q45.09 8.23 45.24 8.08L45.24 8.08L45.24 8.08Q45.39 7.94 45.60 7.81L45.60 7.81L45.60 7.81Q46.23 7.42 46.82 7.42L46.82 7.42L46.82 7.42Q47.38 7.42 47.82 7.59L47.82 7.59L47.82 7.59Q48.27 7.77 48.52 8.03L48.52 8.03L48.52 8.03Q48.78 8.29 48.94 8.62L48.94 8.62L48.94 8.62Q49.11 8.96 49.17 9.24L49.17 9.24L49.17 9.24Q49.22 9.52 49.22 9.77L49.22 9.77L49.22 9.77Q49.22 9.83 49.22 9.90L49.22 9.90L49.22 9.90Q49.22 9.98 49.23 10.10L49.23 10.10L49.23 10.10Q49.24 10.22 49.24 10.65L49.24 10.65L49.24 10.65Q49.24 11.09 49.24 11.77L49.24 11.77L49.24 12.08L49.24 12.08Q49.24 12.61 49.38 12.82L49.38 12.82L49.38 12.82Q49.53 13.02 50.09 13.10L50.09 13.10L50.09 13.10Q50.37 13.15 50.37 13.31L50.37 13.31L50.37 13.31Q50.37 13.45 50.09 13.45L50.09 13.45L50.09 13.45Q49.77 13.45 49.42 13.42L49.42 13.42L49.42 13.42Q49.07 13.38 48.94 13.38L48.94 13.38L48.94 13.38Q48.75 13.38 48.34 13.41L48.34 13.41L48.34 13.41Q47.92 13.44 47.87 13.44L47.87 13.44L47.87 13.44Q47.59 13.44 47.59 13.26L47.59 13.26L47.59 13.26Q47.59 13.19 47.63 13.15L47.63 13.15L47.63 13.15Q47.68 13.10 47.75 13.09L47.75 13.09L47.75 13.09Q47.81 13.08 47.87 13.06L47.87 13.06L47.94 13.05L47.94 13.05Q48.24 12.95 48.24 12.11L48.24 12.11L48.24 10.22L48.24 10.22Q48.24 9.14 47.71 8.59L47.71 8.59L47.71 8.59Q47.18 8.04 46.44 8.04L46.44 8.04L46.44 8.04Q45.84 8.04 45.39 8.36L45.39 8.36L45.39 8.36Q44.94 8.68 44.87 8.89L44.87 8.89L44.87 8.89Q44.74 9.24 44.74 11.10L44.74 11.10L44.74 11.63L44.74 11.63Q44.74 12.33 44.89 12.67L44.89 12.67L44.89 12.67Q45.04 13.01 45.54 13.05L45.54 13.05L45.54 13.05Q45.68 13.05 45.90 13.10L45.90 13.10L45.90 13.10Q46.12 13.15 46.12 13.26L46.12 13.26L46.12 13.26Q46.12 13.44 45.85 13.44L45.85 13.44L45.85 13.44Q45.61 13.44 45.39 13.41L45.39 13.41L45.39 13.41Q45.16 13.38 44.83 13.38L44.83 13.38L44.83 13.38Q44.46 13.38 43.86 13.41L43.86 13.41L43.26 13.44L43.26 13.44Q43.05 13.44 43.05 13.30L43.05 13.30L43.05 13.30Q43.05 13.19 43.12 13.16L43.12 13.16L43.12 13.16Q43.19 13.13 43.30 13.12L43.30 13.12L43.30 13.12Q43.40 13.10 43.51 13.03L43.51 13.03L43.51 13.03Q43.61 12.96 43.69 12.69L43.69 12.69L43.69 12.69Q43.78 12.42 43.79 11.96L43.79 11.96L43.79 11.96Q43.82 11.17 43.82 10.91L43.82 10.91L43.82 8.89L43.82 8.89Q43.82 8.44 43.66 8.29L43.66 8.29L43.66 8.29Q43.50 8.13 43.22 8.13L43.22 8.13L43.08 8.13L43.08 8.13Q42.81 8.13 42.81 7.98ZM51.06 10.72L51.06 10.72L51.06 10.72Q51.06 9.32 51.85 8.36L51.85 8.36L51.85 8.36Q52.64 7.39 53.90 7.39L53.90 7.39L53.90 7.39Q54.49 7.39 54.97 7.60L54.97 7.60L54.97 7.60Q55.45 7.81 55.72 8.11L55.72 8.11L55.72 8.11Q55.99 8.41 56.17 8.75L56.17 8.75L56.17 8.75Q56.35 9.09 56.41 9.30L56.41 9.30L56.41 9.30Q56.48 9.52 56.48 9.62L56.48 9.62L56.48 9.62Q56.48 9.87 55.90 9.87L55.90 9.87L52.72 9.87L52.30 9.87L52.30 9.87Q52.19 9.87 52.17 9.89L52.17 9.89L52.17 9.89Q52.15 9.91 52.15 10.02L52.15 10.02L52.15 10.02Q52.15 11.34 52.86 12.10L52.86 12.10L52.86 12.10Q53.56 12.85 54.52 12.85L54.52 12.85L54.52 12.85Q55.10 12.85 55.71 12.54L55.71 12.54L55.71 12.54Q56.32 12.22 56.35 12.22L56.35 12.22L56.35 12.22Q56.49 12.22 56.49 12.35L56.49 12.35L56.49 12.35Q56.49 12.40 56.39 12.55L56.39 12.55L56.39 12.55Q56.29 12.70 56.08 12.89L56.08 12.89L56.08 12.89Q55.87 13.09 55.59 13.27L55.59 13.27L55.59 13.27Q55.31 13.45 54.89 13.58L54.89 13.58L54.89 13.58Q54.47 13.71 54.01 13.71L54.01 13.71L54.01 13.71Q52.78 13.71 51.92 12.95L51.92 12.95L51.92 12.95Q51.06 12.19 51.06 10.72ZM52.23 9.34L52.23 9.34L52.23 9.34Q52.23 9.53 52.42 9.53L52.42 9.53L52.42 9.53Q52.79 9.53 53.80 9.49L53.80 9.49L53.80 9.49Q54.81 9.45 54.88 9.45L54.88 9.45L54.88 9.45Q55.08 9.45 55.13 9.41L55.13 9.41L55.13 9.41Q55.17 9.38 55.17 9.28L55.17 9.28L55.17 9.28Q55.17 8.86 54.78 8.30L54.78 8.30L54.78 8.30Q54.39 7.74 53.66 7.74L53.66 7.74L53.66 7.74Q52.99 7.74 52.61 8.29L52.61 8.29L52.61 8.29Q52.23 8.85 52.23 9.34ZM60.30 13.33L60.30 13.33L60.30 13.33Q60.30 13.13 60.51 13.06L60.51 13.06L60.51 13.06Q60.96 12.89 61.29 12.31L61.29 12.31L61.29 12.31Q61.63 11.73 62.96 8.83L62.96 8.83L62.96 8.83Q64.33 5.87 65.38 3.63L65.38 3.63L65.38 3.63Q65.48 3.42 65.56 3.36L65.56 3.36L65.56 3.36Q65.63 3.30 65.80 3.30L65.80 3.30L65.80 3.30Q65.93 3.30 65.97 3.36L65.97 3.36L65.97 3.36Q66.01 3.42 66.15 3.82L66.15 3.82L66.15 3.82Q66.23 4.06 66.30 4.23L66.30 4.23L66.30 4.23Q66.36 4.40 66.50 4.77L66.50 4.77L66.50 4.77Q66.64 5.15 66.81 5.56L66.81 5.56L66.81 5.56Q67.26 6.66 68.36 9.22L68.36 9.22L68.36 9.22Q69.45 11.77 69.55 11.98L69.55 11.98L69.55 11.98Q69.79 12.46 70.08 12.71L70.08 12.71L70.08 12.71Q70.38 12.95 70.59 12.97L70.59 12.97L70.59 12.97Q70.81 12.99 70.96 13.04L70.96 13.04L70.96 13.04Q71.11 13.09 71.11 13.26L71.11 13.26L71.11 13.26Q71.11 13.47 70.73 13.47L70.73 13.47L70.73 13.47Q70.57 13.47 70.13 13.43L70.13 13.43L70.13 13.43Q69.68 13.38 69.47 13.38L69.47 13.38L69.47 13.38Q69.20 13.38 68.78 13.41L68.78 13.41L68.78 13.41Q68.36 13.44 68.17 13.44L68.17 13.44L68.17 13.44Q67.73 13.44 67.61 13.40L67.61 13.40L67.61 13.40Q67.49 13.37 67.49 13.24L67.49 13.24L67.49 13.24Q67.49 13.15 67.61 13.08L67.61 13.08L67.61 13.08Q67.72 13.02 67.84 13.00L67.84 13.00L67.84 13.00Q67.97 12.98 68.08 12.87L68.08 12.87L68.08 12.87Q68.19 12.77 68.19 12.59L68.19 12.59L68.19 12.59Q68.19 12.28 67.84 11.33L67.84 11.33L67.84 11.33Q67.49 10.37 67.26 9.93L67.26 9.93L67.26 9.93Q67.13 9.69 66.68 9.69L66.68 9.69L66.68 9.69Q66.61 9.69 66.07 9.70L66.07 9.70L66.07 9.70Q65.52 9.72 64.99 9.72L64.99 9.72L64.25 9.72L64.25 9.72Q63.62 9.72 63.45 9.79L63.45 9.79L63.45 9.79Q63.29 9.86 63.17 10.12L63.17 10.12L63.17 10.12Q63.08 10.30 62.89 10.70L62.89 10.70L62.89 10.70Q62.69 11.10 62.62 11.26L62.62 11.26L62.62 11.26Q62.55 11.41 62.45 11.65L62.45 11.65L62.45 11.65Q62.34 11.90 62.31 12.05L62.31 12.05L62.31 12.05Q62.27 12.19 62.27 12.31L62.27 12.31L62.27 12.31Q62.27 12.63 62.43 12.80L62.43 12.80L62.43 12.80Q62.59 12.96 62.79 12.98L62.79 12.98L62.79 12.98Q62.99 13.01 63.15 13.06L63.15 13.06L63.15 13.06Q63.31 13.12 63.31 13.26L63.31 13.26L63.31 13.26Q63.31 13.36 63.27 13.40L63.27 13.40L63.27 13.40Q63.22 13.45 63.07 13.45L63.07 13.45L63.07 13.45Q62.99 13.45 62.59 13.45L62.59 13.45L62.59 13.45Q62.19 13.44 61.91 13.44L61.91 13.44L61.91 13.44Q61.60 13.44 61.22 13.47L61.22 13.47L61.22 13.47Q60.83 13.50 60.70 13.50L60.70 13.50L60.70 13.50Q60.30 13.50 60.30 13.33ZM63.81 8.71L63.81 8.71L63.81 8.71Q63.81 8.89 63.94 8.93L63.94 8.93L63.94 8.93Q64.06 8.97 64.53 8.97L64.53 8.97L64.96 8.97L66.29 8.96L66.29 8.96Q66.84 8.96 66.84 8.74L66.84 8.74L66.84 8.74Q66.84 8.55 66.15 7.01L66.15 7.01L66.15 7.01Q65.46 5.46 65.28 5.46L65.28 5.46L65.28 5.46Q65.16 5.46 64.48 7.01L64.48 7.01L64.48 7.01Q63.81 8.55 63.81 8.71ZM71.62 8.06L71.62 8.06L71.62 8.06Q71.62 7.98 71.67 7.92L71.67 7.92L71.67 7.92Q71.72 7.85 71.81 7.80L71.81 7.80L71.81 7.80Q71.89 7.74 72.05 7.61L72.05 7.61L72.05 7.61Q72.21 7.48 72.37 7.31L72.37 7.31L72.37 7.31Q72.58 7.08 72.81 6.77L72.81 6.77L72.81 6.77Q73.04 6.45 73.17 6.31L73.17 6.31L73.17 6.31Q73.30 6.16 73.43 6.16L73.43 6.16L73.43 6.16Q73.58 6.16 73.58 6.48L73.58 6.48L73.58 6.48Q73.58 6.61 73.56 6.87L73.56 6.87L73.56 6.87Q73.53 7.14 73.53 7.28L73.53 7.28L73.53 7.28Q73.53 7.48 73.60 7.52L73.60 7.52L73.60 7.52Q73.68 7.56 74.10 7.56L74.10 7.56L74.59 7.56L74.59 7.56Q74.90 7.56 75.12 7.53L75.12 7.53L75.12 7.53Q75.33 7.50 75.42 7.46L75.42 7.46L75.42 7.46Q75.50 7.42 75.56 7.39L75.56 7.39L75.56 7.39Q75.63 7.36 75.67 7.36L75.67 7.36L75.67 7.36Q75.81 7.36 75.81 7.52L75.81 7.52L75.81 7.52Q75.81 7.63 75.63 7.96L75.63 7.96L75.63 7.96Q75.45 8.29 75.36 8.29L75.36 8.29L75.36 8.29Q75.15 8.29 74.96 8.28L74.96 8.28L74.96 8.28Q74.76 8.27 74.62 8.27L74.62 8.27L74.62 8.27Q74.48 8.26 74.35 8.25L74.35 8.25L74.35 8.25Q74.23 8.23 74.14 8.22L74.14 8.22L74.14 8.22Q74.06 8.22 74.00 8.21L74.00 8.21L74.00 8.21Q73.93 8.20 73.91 8.20L73.91 8.20L73.88 8.19L73.88 8.19Q73.61 8.19 73.53 8.27L73.53 8.27L73.53 8.27Q73.46 8.36 73.46 8.65L73.46 8.65L73.46 8.65Q73.46 8.81 73.43 9.82L73.43 9.82L73.43 9.82Q73.40 10.84 73.40 11.26L73.40 11.26L73.40 11.26Q73.40 12.17 73.63 12.52L73.63 12.52L73.63 12.52Q73.86 12.88 74.61 12.88L74.61 12.88L74.61 12.88Q74.90 12.88 75.26 12.75L75.26 12.75L75.26 12.75Q75.61 12.61 75.64 12.61L75.64 12.61L75.64 12.61Q75.78 12.61 75.78 12.78L75.78 12.78L75.78 12.78Q75.78 12.98 75.30 13.28L75.30 13.28L75.30 13.28Q74.82 13.58 74.26 13.58L74.26 13.58L74.26 13.58Q72.37 13.58 72.37 11.94L72.37 11.94L72.37 11.73L72.37 11.73Q72.37 11.19 72.38 10.40L72.38 10.40L72.38 10.40Q72.39 9.62 72.41 9.05L72.41 9.05L72.41 9.05Q72.42 8.48 72.42 8.47L72.42 8.47L72.42 8.47Q72.42 8.33 72.37 8.29L72.37 8.29L72.37 8.29Q72.31 8.25 72.13 8.25L72.13 8.25L72.13 8.25Q72.07 8.25 71.98 8.25L71.98 8.25L71.98 8.25Q71.89 8.26 71.86 8.26L71.86 8.26L71.86 8.26Q71.62 8.26 71.62 8.06ZM76.41 8.06L76.41 8.06L76.41 8.06Q76.41 7.98 76.46 7.92L76.46 7.92L76.46 7.92Q76.51 7.85 76.59 7.80L76.59 7.80L76.59 7.80Q76.68 7.74 76.84 7.61L76.84 7.61L76.84 7.61Q77.00 7.48 77.15 7.31L77.15 7.31L77.15 7.31Q77.36 7.08 77.59 6.77L77.59 6.77L77.59 6.77Q77.83 6.45 77.96 6.31L77.96 6.31L77.96 6.31Q78.09 6.16 78.22 6.16L78.22 6.16L78.22 6.16Q78.37 6.16 78.37 6.48L78.37 6.48L78.37 6.48Q78.37 6.61 78.34 6.87L78.34 6.87L78.34 6.87Q78.32 7.14 78.32 7.28L78.32 7.28L78.32 7.28Q78.32 7.48 78.39 7.52L78.39 7.52L78.39 7.52Q78.47 7.56 78.89 7.56L78.89 7.56L79.38 7.56L79.38 7.56Q79.69 7.56 79.90 7.53L79.90 7.53L79.90 7.53Q80.12 7.50 80.21 7.46L80.21 7.46L80.21 7.46Q80.29 7.42 80.35 7.39L80.35 7.39L80.35 7.39Q80.42 7.36 80.46 7.36L80.46 7.36L80.46 7.36Q80.60 7.36 80.60 7.52L80.60 7.52L80.60 7.52Q80.60 7.63 80.42 7.96L80.42 7.96L80.42 7.96Q80.23 8.29 80.15 8.29L80.15 8.29L80.15 8.29Q79.94 8.29 79.74 8.28L79.74 8.28L79.74 8.28Q79.55 8.27 79.41 8.27L79.41 8.27L79.41 8.27Q79.27 8.26 79.14 8.25L79.14 8.25L79.14 8.25Q79.02 8.23 78.93 8.22L78.93 8.22L78.93 8.22Q78.85 8.22 78.78 8.21L78.78 8.21L78.78 8.21Q78.72 8.20 78.69 8.20L78.69 8.20L78.67 8.19L78.67 8.19Q78.40 8.19 78.32 8.27L78.32 8.27L78.32 8.27Q78.25 8.36 78.25 8.65L78.25 8.65L78.25 8.65Q78.25 8.81 78.22 9.82L78.22 9.82L78.22 9.82Q78.19 10.84 78.19 11.26L78.19 11.26L78.19 11.26Q78.19 12.17 78.42 12.52L78.42 12.52L78.42 12.52Q78.65 12.88 79.39 12.88L79.39 12.88L79.39 12.88Q79.69 12.88 80.04 12.75L80.04 12.75L80.04 12.75Q80.40 12.61 80.43 12.61L80.43 12.61L80.43 12.61Q80.57 12.61 80.57 12.78L80.57 12.78L80.57 12.78Q80.57 12.98 80.09 13.28L80.09 13.28L80.09 13.28Q79.60 13.58 79.04 13.58L79.04 13.58L79.04 13.58Q77.15 13.58 77.15 11.94L77.15 11.94L77.15 11.73L77.15 11.73Q77.15 11.19 77.17 10.40L77.17 10.40L77.17 10.40Q77.18 9.62 77.20 9.05L77.20 9.05L77.20 9.05Q77.21 8.48 77.21 8.47L77.21 8.47L77.21 8.47Q77.21 8.33 77.15 8.29L77.15 8.29L77.15 8.29Q77.10 8.25 76.92 8.25L76.92 8.25L76.92 8.25Q76.86 8.25 76.77 8.25L76.77 8.25L76.77 8.25Q76.68 8.26 76.65 8.26L76.65 8.26L76.65 8.26Q76.41 8.26 76.41 8.06ZM81.13 8.12L81.13 8.12L81.13 8.12Q81.13 7.97 81.32 7.89L81.32 7.89L81.32 7.89Q81.51 7.81 82.02 7.65L82.02 7.65L82.02 7.65Q82.53 7.49 82.98 7.28L82.98 7.28L82.98 7.28Q83.12 7.22 83.17 7.22L83.17 7.22L83.17 7.22Q83.36 7.22 83.36 7.50L83.36 7.50L83.36 7.50Q83.36 7.56 83.35 7.69L83.35 7.69L83.35 7.69Q83.34 7.81 83.34 7.88L83.34 7.88L83.34 7.88Q83.34 8.18 83.36 8.30L83.36 8.30L83.36 8.30Q83.37 8.43 83.39 8.46L83.39 8.46L83.39 8.46Q83.41 8.48 83.45 8.48L83.45 8.48L83.45 8.48Q83.48 8.48 83.66 8.20L83.66 8.20L83.66 8.20Q83.85 7.92 84.18 7.64L84.18 7.64L84.18 7.64Q84.52 7.35 84.92 7.35L84.92 7.35L84.92 7.35Q85.18 7.35 85.58 7.62L85.58 7.62L85.58 7.62Q85.88 7.81 85.88 8.02L85.88 8.02L85.88 8.02Q85.88 8.27 85.76 8.47L85.76 8.47L85.76 8.47Q85.65 8.67 85.55 8.74L85.55 8.74L85.55 8.74Q85.44 8.81 85.40 8.81L85.40 8.81L85.40 8.81Q85.29 8.81 85.00 8.64L85.00 8.64L85.00 8.64Q84.71 8.47 84.34 8.47L84.34 8.47L84.34 8.47Q83.96 8.47 83.63 8.78L83.63 8.78L83.63 8.78Q83.30 9.09 83.30 9.34L83.30 9.34L83.30 10.79L83.30 10.79Q83.30 11.30 83.31 11.61L83.31 11.61L83.31 11.61Q83.31 11.93 83.31 12.00L83.31 12.00L83.31 12.00Q83.31 12.08 83.32 12.14L83.32 12.14L83.32 12.14Q83.33 12.19 83.33 12.26L83.33 12.26L83.33 12.26Q83.33 12.56 83.52 12.77L83.52 12.77L83.52 12.77Q83.72 12.98 83.99 13.02L83.99 13.02L83.99 13.02Q84.07 13.03 84.20 13.05L84.20 13.05L84.20 13.05Q84.32 13.06 84.39 13.07L84.39 13.07L84.39 13.07Q84.46 13.08 84.55 13.10L84.55 13.10L84.55 13.10Q84.63 13.12 84.66 13.16L84.66 13.16L84.66 13.16Q84.70 13.20 84.70 13.26L84.70 13.26L84.70 13.26Q84.70 13.48 84.53 13.48L84.53 13.48L84.53 13.48Q84.29 13.48 83.89 13.45L83.89 13.45L83.89 13.45Q83.48 13.41 83.34 13.41L83.34 13.41L83.34 13.41Q82.89 13.41 82.42 13.45L82.42 13.45L82.42 13.45Q81.94 13.48 81.89 13.48L81.89 13.48L81.89 13.48Q81.75 13.48 81.68 13.45L81.68 13.45L81.68 13.45Q81.61 13.43 81.59 13.40L81.59 13.40L81.59 13.40Q81.58 13.37 81.58 13.31L81.58 13.31L81.58 13.31Q81.58 13.13 81.76 13.08L81.76 13.08L81.76 13.08Q82.12 12.99 82.20 12.72L82.20 12.72L82.20 12.72Q82.28 12.45 82.28 11.55L82.28 11.55L82.28 11.55Q82.28 10.64 82.27 10.05L82.27 10.05L82.27 10.05Q82.26 9.46 82.26 9.30L82.26 9.30L82.26 9.30Q82.26 9.14 82.26 9.04L82.26 9.04L82.26 9.04Q82.25 8.95 82.25 8.88L82.25 8.88L82.25 8.88Q82.25 8.72 82.21 8.62L82.21 8.62L82.21 8.62Q82.17 8.53 82.00 8.44L82.00 8.44L82.00 8.44Q81.84 8.36 81.55 8.36L81.55 8.36L81.55 8.36Q81.54 8.36 81.48 8.35L81.48 8.35L81.48 8.35Q81.42 8.34 81.40 8.34L81.40 8.34L81.40 8.34Q81.13 8.34 81.13 8.12ZM86.74 12.25L86.74 12.25L86.74 12.25Q86.74 11.75 86.95 11.40L86.95 11.40L86.95 11.40Q87.16 11.06 87.59 10.87L87.59 10.87L87.59 10.87Q88.02 10.68 88.48 10.57L88.48 10.57L88.48 10.57Q88.94 10.46 89.60 10.35L89.60 10.35L89.60 10.35Q89.68 10.33 89.73 10.32L89.73 10.32L89.73 10.32Q89.77 10.32 89.84 10.31L89.84 10.31L89.84 10.31Q89.91 10.30 89.96 10.29L89.96 10.29L89.96 10.29Q90.06 10.28 90.10 10.26L90.10 10.26L90.10 10.26Q90.13 10.25 90.17 10.20L90.17 10.20L90.17 10.20Q90.20 10.15 90.20 10.07L90.20 10.07L90.20 10.07Q90.20 9.93 90.22 9.68L90.22 9.68L90.22 9.68Q90.23 9.44 90.23 9.34L90.23 9.34L90.23 9.34Q90.23 8.54 89.77 8.18L89.77 8.18L89.77 8.18Q89.31 7.83 88.87 7.83L88.87 7.83L88.87 7.83Q87.86 7.83 87.86 8.67L87.86 8.67L87.86 8.67Q87.86 8.78 87.89 8.95L87.89 8.95L87.89 8.95Q87.92 9.11 87.92 9.17L87.92 9.17L87.92 9.17Q87.92 9.45 87.67 9.45L87.67 9.45L87.67 9.45Q87.58 9.45 87.46 9.43L87.46 9.43L87.46 9.43Q87.33 9.41 87.17 9.36L87.17 9.36L87.17 9.36Q87.01 9.31 86.90 9.19L86.90 9.19L86.90 9.19Q86.80 9.07 86.80 8.90L86.80 8.90L86.80 8.90Q86.80 8.36 87.53 7.86L87.53 7.86L87.53 7.86Q88.27 7.36 89.15 7.36L89.15 7.36L89.15 7.36Q89.75 7.36 90.17 7.50L90.17 7.50L90.17 7.50Q90.59 7.64 90.80 7.82L90.80 7.82L90.80 7.82Q91.00 7.99 91.11 8.28L91.11 8.28L91.11 8.28Q91.22 8.57 91.24 8.73L91.24 8.73L91.24 8.73Q91.25 8.89 91.25 9.13L91.25 9.13L91.25 9.13Q91.25 10.14 91.22 10.72L91.22 10.72L91.22 10.72Q91.18 11.30 91.18 11.73L91.18 11.73L91.18 11.73Q91.18 12.25 91.29 12.55L91.29 12.55L91.29 12.55Q91.41 12.85 91.56 12.94L91.56 12.94L91.56 12.94Q91.71 13.02 91.87 13.03L91.87 13.03L91.87 13.03Q92.02 13.05 92.13 13.09L92.13 13.09L92.13 13.09Q92.25 13.13 92.25 13.26L92.25 13.26L92.25 13.26Q92.25 13.55 91.36 13.55L91.36 13.55L91.36 13.55Q91.00 13.55 90.74 13.36L90.74 13.36L90.74 13.36Q90.48 13.16 90.37 12.97L90.37 12.97L90.37 12.97Q90.26 12.78 90.24 12.78L90.24 12.78L90.24 12.78Q90.23 12.78 90.13 12.87L90.13 12.87L90.13 12.87Q90.03 12.96 89.86 13.09L89.86 13.09L89.86 13.09Q89.68 13.22 89.47 13.34L89.47 13.34L89.47 13.34Q89.25 13.47 88.96 13.56L88.96 13.56L88.96 13.56Q88.68 13.65 88.40 13.65L88.40 13.65L88.40 13.65Q87.50 13.65 87.09 13.23L87.09 13.23L87.09 13.23Q86.74 12.88 86.74 12.25ZM87.84 12.04L87.84 12.04L87.84 12.04Q87.84 12.52 88.12 12.80L88.12 12.80L88.12 12.80Q88.40 13.09 88.91 13.09L88.91 13.09L88.91 13.09Q89.28 13.09 89.54 12.98L89.54 12.98L89.54 12.98Q89.80 12.87 89.92 12.73L89.92 12.73L89.92 12.73Q90.05 12.59 90.12 12.36L90.12 12.36L90.12 12.36Q90.19 12.12 90.19 12.00L90.19 12.00L90.19 12.00Q90.20 11.87 90.20 11.66L90.20 11.66L90.20 10.65L90.20 10.65Q90.20 10.53 90.10 10.53L90.10 10.53L90.10 10.53Q90.08 10.53 90.03 10.54L90.03 10.54L90.03 10.54Q89.99 10.56 89.96 10.56L89.96 10.56L89.96 10.56Q89.64 10.61 89.56 10.63L89.56 10.63L89.56 10.63Q89.47 10.64 89.17 10.71L89.17 10.71L89.17 10.71Q88.86 10.78 88.74 10.84L88.74 10.84L88.74 10.84Q88.62 10.89 88.40 11.01L88.40 11.01L88.40 11.01Q88.19 11.13 88.09 11.26L88.09 11.26L88.09 11.26Q88.00 11.40 87.92 11.60L87.92 11.60L87.92 11.60Q87.84 11.80 87.84 12.04ZM92.88 10.75L92.88 10.75L92.88 10.75Q92.88 9.41 93.78 8.42L93.78 8.42L93.78 8.42Q94.68 7.43 96.12 7.43L96.12 7.43L96.12 7.43Q96.61 7.43 97.18 7.57L97.18 7.57L97.18 7.57Q97.75 7.71 97.76 7.90L97.76 7.90L97.76 7.90Q97.79 8.23 97.79 8.55L97.79 8.55L97.79 8.55Q97.79 9.17 97.64 9.17L97.64 9.17L97.64 9.17Q97.55 9.17 97.49 9.11L97.49 9.11L97.49 9.11Q97.43 9.04 97.35 8.92L97.35 8.92L97.35 8.92Q97.27 8.79 97.17 8.72L97.17 8.72L97.17 8.72Q96.87 8.46 96.34 8.22L96.34 8.22L96.34 8.22Q95.82 7.98 95.31 7.98L95.31 7.98L95.31 7.98Q95.21 7.98 95.06 8.03L95.06 8.03L95.06 8.03Q94.91 8.08 94.70 8.24L94.70 8.24L94.70 8.24Q94.50 8.40 94.33 8.64L94.33 8.64L94.33 8.64Q94.16 8.89 94.04 9.32L94.04 9.32L94.04 9.32Q93.93 9.76 93.93 10.30L93.93 10.30L93.93 10.30Q93.93 11.40 94.62 12.20L94.62 12.20L94.62 12.20Q95.31 13.01 96.32 13.01L96.32 13.01L96.32 13.01Q96.81 13.01 97.23 12.82L97.23 12.82L97.23 12.82Q97.65 12.64 97.88 12.46L97.88 12.46L97.88 12.46Q98.11 12.28 98.17 12.28L98.17 12.28L98.17 12.28Q98.32 12.28 98.32 12.42L98.32 12.42L98.32 12.42Q98.32 12.46 98.23 12.60L98.23 12.60L98.23 12.60Q98.14 12.74 97.94 12.94L97.94 12.94L97.94 12.94Q97.73 13.13 97.45 13.31L97.45 13.31L97.45 13.31Q97.17 13.48 96.73 13.61L96.73 13.61L96.73 13.61Q96.28 13.73 95.77 13.73L95.77 13.73L95.77 13.73Q94.46 13.73 93.67 12.94L93.67 12.94L93.67 12.94Q92.88 12.14 92.88 10.75ZM98.97 8.06L98.97 8.06L98.97 8.06Q98.97 7.98 99.02 7.92L99.02 7.92L99.02 7.92Q99.06 7.85 99.15 7.80L99.15 7.80L99.15 7.80Q99.23 7.74 99.39 7.61L99.39 7.61L99.39 7.61Q99.55 7.48 99.71 7.31L99.71 7.31L99.71 7.31Q99.92 7.08 100.15 6.77L100.15 6.77L100.15 6.77Q100.38 6.45 100.51 6.31L100.51 6.31L100.51 6.31Q100.65 6.16 100.77 6.16L100.77 6.16L100.77 6.16Q100.93 6.16 100.93 6.48L100.93 6.48L100.93 6.48Q100.93 6.61 100.90 6.87L100.90 6.87L100.90 6.87Q100.87 7.14 100.87 7.28L100.87 7.28L100.87 7.28Q100.87 7.48 100.95 7.52L100.95 7.52L100.95 7.52Q101.02 7.56 101.44 7.56L101.44 7.56L101.93 7.56L101.93 7.56Q102.24 7.56 102.46 7.53L102.46 7.53L102.46 7.53Q102.68 7.50 102.76 7.46L102.76 7.46L102.76 7.46Q102.84 7.42 102.91 7.39L102.91 7.39L102.91 7.39Q102.97 7.36 103.01 7.36L103.01 7.36L103.01 7.36Q103.15 7.36 103.15 7.52L103.15 7.52L103.15 7.52Q103.15 7.63 102.97 7.96L102.97 7.96L102.97 7.96Q102.79 8.29 102.70 8.29L102.70 8.29L102.70 8.29Q102.49 8.29 102.30 8.28L102.30 8.28L102.30 8.28Q102.10 8.27 101.96 8.27L101.96 8.27L101.96 8.27Q101.82 8.26 101.70 8.25L101.70 8.25L101.70 8.25Q101.57 8.23 101.49 8.22L101.49 8.22L101.49 8.22Q101.40 8.22 101.34 8.21L101.34 8.21L101.34 8.21Q101.28 8.20 101.25 8.20L101.25 8.20L101.22 8.19L101.22 8.19Q100.95 8.19 100.88 8.27L100.88 8.27L100.88 8.27Q100.80 8.36 100.80 8.65L100.80 8.65L100.80 8.65Q100.80 8.81 100.77 9.82L100.77 9.82L100.77 9.82Q100.74 10.84 100.74 11.26L100.74 11.26L100.74 11.26Q100.74 12.17 100.97 12.52L100.97 12.52L100.97 12.52Q101.21 12.88 101.95 12.88L101.95 12.88L101.95 12.88Q102.24 12.88 102.60 12.75L102.60 12.75L102.60 12.75Q102.96 12.61 102.98 12.61L102.98 12.61L102.98 12.61Q103.12 12.61 103.12 12.78L103.12 12.78L103.12 12.78Q103.12 12.98 102.64 13.28L102.64 13.28L102.64 13.28Q102.16 13.58 101.60 13.58L101.60 13.58L101.60 13.58Q99.71 13.58 99.71 11.94L99.71 11.94L99.71 11.73L99.71 11.73Q99.71 11.19 99.72 10.40L99.72 10.40L99.72 10.40Q99.74 9.62 99.75 9.05L99.75 9.05L99.75 9.05Q99.76 8.48 99.76 8.47L99.76 8.47L99.76 8.47Q99.76 8.33 99.71 8.29L99.71 8.29L99.71 8.29Q99.65 8.25 99.47 8.25L99.47 8.25L99.47 8.25Q99.41 8.25 99.32 8.25L99.32 8.25L99.32 8.25Q99.23 8.26 99.20 8.26L99.20 8.26L99.20 8.26Q98.97 8.26 98.97 8.06ZM103.88 8.11L103.88 8.11L103.88 8.11Q103.88 8.04 103.91 7.99L103.91 7.99L103.91 7.99Q103.95 7.95 104.05 7.90L104.05 7.90L104.05 7.90Q104.16 7.85 104.27 7.82L104.27 7.82L104.27 7.82Q104.38 7.78 104.60 7.71L104.60 7.71L104.60 7.71Q104.82 7.63 105.01 7.55L105.01 7.55L105.01 7.55Q105.17 7.48 105.30 7.42L105.30 7.42L105.30 7.42Q105.43 7.36 105.48 7.34L105.48 7.34L105.48 7.34Q105.52 7.32 105.57 7.31L105.57 7.31L105.57 7.31Q105.63 7.29 105.71 7.29L105.71 7.29L105.71 7.29Q105.92 7.29 105.92 7.56L105.92 7.56L105.92 7.56Q105.92 7.63 105.88 7.87L105.88 7.87L105.88 7.87Q105.84 8.11 105.84 8.23L105.84 8.23L105.84 12.07L105.84 12.07Q105.84 12.49 105.97 12.73L105.97 12.73L105.97 12.73Q106.11 12.96 106.25 13.02L106.25 13.02L106.25 13.02Q106.40 13.08 106.62 13.09L106.62 13.09L106.62 13.09Q106.79 13.10 106.85 13.11L106.85 13.11L106.85 13.11Q106.90 13.12 106.97 13.16L106.97 13.16L106.97 13.16Q107.04 13.20 107.04 13.30L107.04 13.30L107.04 13.30Q107.04 13.54 106.81 13.54L106.81 13.54L106.81 13.54Q106.78 13.54 106.71 13.53L106.71 13.53L106.71 13.53Q106.64 13.52 106.60 13.52L106.60 13.52L106.60 13.52Q106.29 13.52 106.08 13.51L106.08 13.51L106.08 13.51Q105.87 13.50 105.60 13.50L105.60 13.50L105.60 13.50Q105.27 13.50 104.97 13.51L104.97 13.51L104.97 13.51Q104.68 13.52 104.61 13.52L104.61 13.52L104.61 13.52Q104.05 13.52 104.05 13.34L104.05 13.34L104.05 13.34Q104.05 13.15 104.26 13.08L104.26 13.08L104.26 13.08Q104.27 13.08 104.31 13.06L104.31 13.06L104.31 13.06Q104.64 12.95 104.71 12.78L104.71 12.78L104.71 12.78Q104.83 12.50 104.83 10.56L104.83 10.56L104.83 9.32L104.83 9.32Q104.83 8.92 104.73 8.68L104.73 8.68L104.73 8.68Q104.64 8.44 104.55 8.39L104.55 8.39L104.55 8.39Q104.47 8.33 104.26 8.29L104.26 8.29L104.26 8.29Q104.06 8.26 104.02 8.25L104.02 8.25L104.02 8.25Q103.88 8.19 103.88 8.11ZM104.68 5.18L104.68 5.18L104.68 5.18Q104.68 5.01 104.92 4.71L104.92 4.71L104.92 4.71Q105.17 4.41 105.38 4.41L105.38 4.41L105.38 4.41Q105.60 4.41 105.81 4.70L105.81 4.70L105.81 4.70Q106.02 4.98 106.02 5.21L106.02 5.21L106.02 5.21Q106.02 5.43 105.76 5.70L105.76 5.70L105.76 5.70Q105.49 5.98 105.36 5.98L105.36 5.98L105.36 5.98Q105.08 5.98 104.88 5.68L104.88 5.68L104.88 5.68Q104.68 5.39 104.68 5.18ZM107.83 10.60L107.83 10.60L107.83 10.60Q107.83 9.31 108.70 8.36L108.70 8.36L108.70 8.36Q109.58 7.41 111.13 7.41L111.13 7.41L111.13 7.41Q112.45 7.41 113.42 8.23L113.42 8.23L113.42 8.23Q114.39 9.06 114.39 10.51L114.39 10.51L114.39 10.51Q114.39 12.00 113.39 12.84L113.39 12.84L113.39 12.84Q112.39 13.69 111.03 13.69L111.03 13.69L111.03 13.69Q109.52 13.69 108.67 12.77L108.67 12.77L108.67 12.77Q107.83 11.86 107.83 10.60ZM108.93 10.12L108.93 10.12L108.93 10.12Q108.93 11.56 109.70 12.42L109.70 12.42L109.70 12.42Q110.47 13.27 111.45 13.27L111.45 13.27L111.45 13.27Q112.25 13.27 112.80 12.66L112.80 12.66L112.80 12.66Q113.34 12.05 113.34 10.93L113.34 10.93L113.34 10.93Q113.34 9.70 112.67 8.74L112.67 8.74L112.67 8.74Q112 7.78 110.80 7.78L110.80 7.78L110.80 7.78Q110.07 7.78 109.50 8.36L109.50 8.36L109.50 8.36Q108.93 8.93 108.93 10.12ZM115.37 7.98L115.37 7.98L115.37 7.98Q115.37 7.90 115.47 7.85L115.47 7.85L115.47 7.85Q115.56 7.81 115.77 7.78L115.77 7.78L115.77 7.78Q115.98 7.76 116.06 7.73L116.06 7.73L116.06 7.73Q116.33 7.66 116.61 7.54L116.61 7.54L116.61 7.54Q116.90 7.42 117.08 7.34L117.08 7.34L117.08 7.34Q117.25 7.25 117.31 7.25L117.31 7.25L117.33 7.25L117.33 7.25Q117.46 7.25 117.46 7.42L117.46 7.42L117.46 7.42Q117.46 7.45 117.45 7.67L117.45 7.67L117.45 7.67Q117.43 7.90 117.43 8.02L117.43 8.02L117.43 8.02Q117.43 8.39 117.50 8.39L117.50 8.39L117.50 8.39Q117.54 8.39 117.60 8.31L117.60 8.31L117.60 8.31Q117.66 8.23 117.80 8.08L117.80 8.08L117.80 8.08Q117.95 7.94 118.16 7.81L118.16 7.81L118.16 7.81Q118.79 7.42 119.38 7.42L119.38 7.42L119.38 7.42Q119.94 7.42 120.39 7.59L120.39 7.59L120.39 7.59Q120.83 7.77 121.09 8.03L121.09 8.03L121.09 8.03Q121.34 8.29 121.51 8.62L121.51 8.62L121.51 8.62Q121.67 8.96 121.73 9.24L121.73 9.24L121.73 9.24Q121.79 9.52 121.79 9.77L121.79 9.77L121.79 9.77Q121.79 9.83 121.79 9.90L121.79 9.90L121.79 9.90Q121.79 9.98 121.79 10.10L121.79 10.10L121.79 10.10Q121.80 10.22 121.80 10.65L121.80 10.65L121.80 10.65Q121.80 11.09 121.80 11.77L121.80 11.77L121.80 12.08L121.80 12.08Q121.80 12.61 121.95 12.82L121.95 12.82L121.95 12.82Q122.09 13.02 122.65 13.10L122.65 13.10L122.65 13.10Q122.93 13.15 122.93 13.31L122.93 13.31L122.93 13.31Q122.93 13.45 122.65 13.45L122.65 13.45L122.65 13.45Q122.33 13.45 121.98 13.42L121.98 13.42L121.98 13.42Q121.63 13.38 121.51 13.38L121.51 13.38L121.51 13.38Q121.31 13.38 120.90 13.41L120.90 13.41L120.90 13.41Q120.48 13.44 120.43 13.44L120.43 13.44L120.43 13.44Q120.15 13.44 120.15 13.26L120.15 13.26L120.15 13.26Q120.15 13.19 120.20 13.15L120.20 13.15L120.20 13.15Q120.25 13.10 120.31 13.09L120.31 13.09L120.31 13.09Q120.37 13.08 120.43 13.06L120.43 13.06L120.50 13.05L120.50 13.05Q120.81 12.95 120.81 12.11L120.81 12.11L120.81 10.22L120.81 10.22Q120.81 9.14 120.27 8.59L120.27 8.59L120.27 8.59Q119.74 8.04 119 8.04L119 8.04L119 8.04Q118.40 8.04 117.95 8.36L117.95 8.36L117.95 8.36Q117.50 8.68 117.43 8.89L117.43 8.89L117.43 8.89Q117.31 9.24 117.31 11.10L117.31 11.10L117.31 11.63L117.31 11.63Q117.31 12.33 117.45 12.67L117.45 12.67L117.45 12.67Q117.60 13.01 118.10 13.05L118.10 13.05L118.10 13.05Q118.24 13.05 118.46 13.10L118.46 13.10L118.46 13.10Q118.68 13.15 118.68 13.26L118.68 13.26L118.68 13.26Q118.68 13.44 118.41 13.44L118.41 13.44L118.41 13.44Q118.17 13.44 117.95 13.41L117.95 13.41L117.95 13.41Q117.73 13.38 117.39 13.38L117.39 13.38L117.39 13.38Q117.03 13.38 116.42 13.41L116.42 13.41L115.82 13.44L115.82 13.44Q115.61 13.44 115.61 13.30L115.61 13.30L115.61 13.30Q115.61 13.19 115.68 13.16L115.68 13.16L115.68 13.16Q115.75 13.13 115.86 13.12L115.86 13.12L115.86 13.12Q115.96 13.10 116.07 13.03L116.07 13.03L116.07 13.03Q116.17 12.96 116.26 12.69L116.26 12.69L116.26 12.69Q116.34 12.42 116.35 11.96L116.35 11.96L116.35 11.96Q116.38 11.17 116.38 10.91L116.38 10.91L116.38 8.89L116.38 8.89Q116.38 8.44 116.22 8.29L116.22 8.29L116.22 8.29Q116.06 8.13 115.78 8.13L115.78 8.13L115.64 8.13L115.64 8.13Q115.37 8.13 115.37 7.98ZM123.98 12.84L123.98 12.84L123.98 11.62L123.98 11.62Q123.98 11.47 124.05 11.36L124.05 11.36L124.05 11.36Q124.11 11.26 124.19 11.26L124.19 11.26L124.19 11.26Q124.33 11.26 124.38 11.32L124.38 11.32L124.38 11.32Q124.43 11.38 124.47 11.58L124.47 11.58L124.47 11.58Q124.52 11.77 124.56 11.86L124.56 11.86L124.56 11.86Q125.08 13.15 126.01 13.15L126.01 13.15L126.01 13.15Q126.45 13.15 126.84 12.91L126.84 12.91L126.84 12.91Q127.23 12.68 127.23 12.15L127.23 12.15L127.23 12.15Q127.23 11.69 126.91 11.38L126.91 11.38L126.91 11.38Q126.59 11.07 126.13 10.90L126.13 10.90L126.13 10.90Q125.66 10.72 125.20 10.54L125.20 10.54L125.20 10.54Q124.74 10.35 124.42 9.97L124.42 9.97L124.42 9.97Q124.10 9.60 124.10 9.04L124.10 9.04L124.10 9.04Q124.10 8.26 124.73 7.78L124.73 7.78L124.73 7.78Q125.36 7.31 126.21 7.31L126.21 7.31L126.21 7.31Q126.87 7.31 127.26 7.43L127.26 7.43L127.26 7.43Q127.65 7.55 127.73 7.64L127.73 7.64L127.73 7.64Q127.81 7.74 127.81 7.83L127.81 7.83L127.81 7.83Q127.81 7.84 127.83 8.20L127.83 8.20L127.83 8.20Q127.86 8.57 127.86 8.67L127.86 8.67L127.86 8.67Q127.86 8.90 127.81 8.99L127.81 8.99L127.81 8.99Q127.75 9.07 127.61 9.07L127.61 9.07L127.61 9.07Q127.54 9.07 127.42 8.87L127.42 8.87L127.42 8.87Q127.30 8.67 127.16 8.43L127.16 8.43L127.16 8.43Q127.01 8.19 126.68 7.99L126.68 7.99L126.68 7.99Q126.35 7.78 125.92 7.78L125.92 7.78L125.92 7.78Q125.51 7.78 125.24 7.99L125.24 7.99L125.24 7.99Q124.98 8.19 124.98 8.50L124.98 8.50L124.98 8.50Q124.98 8.67 125.02 8.81L125.02 8.81L125.02 8.81Q125.06 8.96 125.17 9.07L125.17 9.07L125.17 9.07Q125.27 9.18 125.35 9.26L125.35 9.26L125.35 9.26Q125.43 9.34 125.61 9.42L125.61 9.42L125.61 9.42Q125.79 9.51 125.88 9.54L125.88 9.54L125.88 9.54Q125.97 9.58 126.19 9.65L126.19 9.65L126.19 9.65Q126.41 9.73 126.48 9.76L126.48 9.76L126.48 9.76Q127.48 10.14 127.83 10.55L127.83 10.55L127.83 10.55Q128.18 10.96 128.18 11.77L128.18 11.77L128.18 11.77Q128.18 12.56 127.44 13.23L127.44 13.23L127.44 13.23Q126.94 13.66 126.06 13.66L126.06 13.66L126.06 13.66Q125.80 13.66 125.52 13.61L125.52 13.61L125.52 13.61Q125.24 13.55 125.08 13.50L125.08 13.50L125.08 13.50Q124.92 13.45 124.71 13.37L124.71 13.37L124.71 13.37Q124.50 13.29 124.49 13.29L124.49 13.29L124.49 13.29Q124.43 13.27 124.36 13.24L124.36 13.24L124.36 13.24Q124.28 13.22 124.24 13.21L124.24 13.21L124.24 13.21Q124.21 13.20 124.15 13.17L124.15 13.17L124.15 13.17Q124.10 13.15 124.08 13.13L124.08 13.13L124.08 13.13Q124.05 13.10 124.03 13.06L124.03 13.06L124.03 13.06Q124.00 13.02 123.99 12.96L123.99 12.96L123.99 12.96Q123.98 12.91 123.98 12.84Z"></path></g><!----><!----></svg>